<svg height='100px' width='100px'  fill="#3cc194" xmlns="http://www.w3.org/2000/svg" xmlns:xlink="http://www.w3.org/1999/xlink" version="1.1" x="0px" y="0px" viewBox="0 0 66 66" style="enable-background:new 0 0 66 66;" xml:space="preserve"><g><path d="M33,1C20.6,1,10.5,11.1,10.5,23.5C10.5,35.9,20.6,46,33,46c12.4,0,22.5-10.1,22.5-22.5C55.5,11.1,45.4,1,33,1z M30.4,18.7   c-2.4,0-4.3-1.9-4.3-4.3c0-0.6,0.4-1,1-1s1,0.4,1,1c0,1.3,1,2.3,2.3,2.3c0.6,0,1,0.4,1,1S31,18.7,30.4,18.7z M36.3,24.5L36.3,24.5   c-2.4,0-4.3-1.9-4.3-4.3c0-0.6,0.4-1,1-1s1,0.4,1,1c0,1.3,1,2.3,2.3,2.3c0.6,0,1,0.4,1,1C37.3,24.1,36.8,24.5,36.3,24.5z    M33.1,13.3c0-0.6,0.4-1,1-1c0.6,0,1,0.4,1,1c0,1.3,1,2.3,2.3,2.3c0.6,0,1,0.4,1,1s-0.4,1-1,1C35,17.6,33.1,15.7,33.1,13.3z    M42.1,30.4L42.1,30.4c-2.4,0-4.3-1.9-4.3-4.3c0-0.6,0.4-1,1-1s1,0.4,1,1c0,1.3,1,2.3,2.3,2.3c0.6,0,1,0.4,1,1   C43.1,29.9,42.7,30.4,42.1,30.4z M43.2,23.4c-2.4,0-4.3-1.9-4.3-4.3c0-0.6,0.4-1,1-1c0.6,0,1,0.4,1,1c0,1.3,1,2.3,2.3,2.3   c0.6,0,1,0.4,1,1S43.8,23.4,43.2,23.4z M44.3,16.5c-2.4,0-4.3-1.9-4.3-4.3c0-0.6,0.4-1,1-1s1,0.4,1,1c0,1.3,1,2.3,2.3,2.3   c0.6,0,1,0.4,1,1S44.9,16.5,44.3,16.5z"></path><g><path d="M52.8,64c0,0.6-0.5,1-1,1H14.2c-0.5,0-1-0.4-1-1c0-0.5,0.5-1,1-1h14c0-8.9-0.5-11.8-2.4-16.1c2.3,0.7,4.7,1.1,7.2,1.1    s4.9-0.4,7.2-1.1c-1.9,4.3-2.3,7.3-2.4,16.1h14C52.4,63,52.8,63.5,52.8,64z"></path></g></g></svg>