<svg height='100px' width='100px'  fill="#fcfffe" xmlns="http://www.w3.org/2000/svg" data-name="Layer 1" viewBox="0 0 512 512" x="0px" y="0px"><title>Microphone</title><path d="M256,359.8a92.24,92.24,0,0,0,92.24-92.25V92.24A92.24,92.24,0,0,0,256,0h0a92.24,92.24,0,0,0-92.24,92.24V267.55A92.24,92.24,0,0,0,256,359.8Zm-11.35-267A17.23,17.23,0,0,1,252.87,89c.42-.08.84-.21,1.26-.31h3.93l2.69.7a17.67,17.67,0,1,1-16.1,3.44Zm29,80.33A17.67,17.67,0,1,1,256,155.48,17.67,17.67,0,0,1,273.67,173.11Zm-22.35,89.67a17.17,17.17,0,0,1-12.38-12.47,17.67,17.67,0,1,1,25.52,10.95,35.33,35.33,0,0,1-5.35,1.9c-.34.12-.7.21-1.05.31h-3.93C253.19,263.24,252.24,263.06,251.32,262.78Z"></path><path d="M402.1,167.62A15.38,15.38,0,0,0,386.72,183v81.32c0,72.15-58.64,130.85-130.72,130.85s-130.72-58.7-130.72-130.85V183a15.38,15.38,0,0,0-30.75,0v81.32c0,83.91,64.24,153.08,146.1,160.86v56.08h-71a15.38,15.38,0,0,0,0,30.75H342.41a15.38,15.38,0,0,0,0-30.75h-71V425.17c81.86-7.78,146.1-76.95,146.1-160.86V183A15.37,15.37,0,0,0,402.1,167.62Z"></path></svg>