<svg height='100px' width='100px'  fill="#fcfffe" xmlns="http://www.w3.org/2000/svg" xmlns:xlink="http://www.w3.org/1999/xlink" version="1.1" x="0px" y="0px" viewBox="0 0 50 50" enable-background="new 0 0 50 50" xml:space="preserve"><circle cx="39.441" cy="23.463" r="1.736"></circle><circle cx="24.728" cy="10.6" r="3.61"></circle><path d="M29.499,27.288v-9.089c0-1.656-1.344-3-3-3h-3.001l-5.089-0.663c-0.357-0.048-0.723,0.038-1.023,0.237l-3.521,2.336  L11.486,7.33c-0.005-0.02-0.011-0.045-0.018-0.064c-0.212-0.715-0.964-1.123-1.679-0.91C9.075,6.567,8.667,7.318,8.88,8.033  l3.07,10.348l-0.319,0.212c0,0.001,0.001,0.001,0.001,0.001c-0.329,0.219-0.572,0.564-0.648,0.984  c-0.146,0.815,0.396,1.595,1.213,1.741l0.661,0.119l0.301,1.016c0.147,0.494,0.659,0.793,1.166,0.67  c0.523-0.127,0.846-0.655,0.718-1.18l-0.029-0.121l3.565,0.64c0.088,0.016,0.177,0.023,0.266,0.023c0.172,0,0.342-0.029,0.506-0.088  l6.383-2.287c0.228-0.081,0.418-0.216,0.574-0.381c-0.021,0.595-0.396,1.145-0.99,1.357l-5.36,1.921v4.202  c0,0.581-1.35,6.204-1.35,6.204c-0.032,0.102-0.058,0.206-0.073,0.312l-1.164,7.673c-0.166,1.092,0.586,2.111,1.678,2.277  c0.102,0.016,0.203,0.023,0.303,0.023c0.972-0.001,1.824-0.711,1.975-1.701l1.14-7.515l2.475-5.285l4.483,13.152  c0.285,0.828,1.061,1.349,1.891,1.349c0.216,0,0.436-0.035,0.652-0.11c1.044-0.36,1.598-1.499,1.238-2.543  C33.203,41.047,29.499,28.041,29.499,27.288z M19.956,18.83l-1.242,0.609l-2.31-0.414l2.174-1.441c0,0,1.378,0.468,1.378,0.615  V18.83z"></path></svg>