<svg height='100px' width='100px'  fill="#fcfffe" xmlns="http://www.w3.org/2000/svg" xmlns:xlink="http://www.w3.org/1999/xlink" version="1.1" x="0px" y="0px" viewBox="0 0 100 100" enable-background="new 0 0 100 100" xml:space="preserve"><path fill-rule="evenodd" clip-rule="evenodd" d="M75.719,83.895c0.312-0.315,0.564-0.65,0.657-0.975  c0.183-0.563-0.353-1.429-0.48-1.646c-0.145-0.248-0.302-0.459-0.426-0.726c-0.225-0.487-0.276-0.996-0.084-1.507  c0.369-0.981,1.295-1.554,2.237-1.896c0.731-0.264,1.495-0.509,2.198-0.839c1.174-0.551,2.361-1.582,3.183-2.576  c1.868-2.26,3.361-4.977,4.591-7.633c0.661-1.427,1.266-2.895,1.657-4.421c0.43-1.679,0.47-3.601,0.26-5.32  c-0.199-1.631-0.453-3.481-1.019-5.022c-0.492-1.339-1.41-1.993-2.873-1.731c-0.868,0.155-1.726,0.358-2.59,0.529  c-0.83,0.165-1.689,0.299-2.5,0.541c-1.339,0.4-2.185,1.28-2.793,2.509c-0.698,1.411-1.319,2.859-2.056,4.251  c-0.721,1.361-1.471,2.706-2.222,4.05c-0.744,1.332-1.573,2.614-2.288,3.962c-0.344,0.65-0.618,1.291-0.66,2.035  c-0.047,0.827,0.187,1.551,0.438,2.328c0.517,1.609,1.02,3.223,1.467,4.854c0.212,0.773,0.366,1.601,0.668,2.342  c0.147,0.36,0.404,0.735,0.596,1.078c0.587,1.052,0.825,2.093,0.112,3.175c-0.801,1.214-2.138,1.704-3.311,2.436  c-1.431,0.892-2.795,1.887-4.243,2.753c-1.501,0.898-3.057,1.726-4.638,2.475c-1.213,0.574-3.143,1.191-3.827,2.423  c-0.103,0.185-0.128,0.663-0.144,0.875c-0.022,0.284-0.045,0.569-0.104,0.849c-0.212,1.015-1.636,1.401-2.457,1.563  c-0.034,0.011-0.068,0.021-0.102,0.03c-0.889,0.235-2.085,0.274-3.222,0.28c-2.389,0.013-4.31-0.343-6.527-0.448  c-0.996-0.048-2.11-0.115-3.194-0.308c-2.057-0.367-3.742-0.809-5.547-1.429c-0.937-0.322-1.79-0.606-2.325-1.149  c-0.56-0.567-0.264-1.536,0.476-1.764c0.557-0.172,1.672,0.329,2.157,0.476c2.106,0.639,4.026,1.157,6.471,1.569  c1.45,0.244,2.95,0.616,4.762,0.616c0.957,0,1.817-0.028,2.549-0.14c0.827-0.126,1.612-0.626,1.821-1.429  c0.165-0.632-0.542-1.222-1.008-1.625c-0.463-0.4-0.987-0.607-1.513-0.84c-2.241-0.993-4.131-2.017-6.107-3.306  c-0.998-0.651-2.053-1.221-3.137-1.569c-1.221-0.392-2.699-0.346-4.258-0.448c-2.802-0.184-5.692-0.633-8.152-1.261  c-0.62-0.158-1.441-0.374-2.017-0.112c-0.721,0.328-1.37,1.162-0.924,2.045c0.223,0.441,0.658,0.889,1.037,1.317  c0.266,0.3,1.026,1.016,0.924,1.541c-0.112,0.574-0.644,1.199-1.345,1.12c-0.469-0.052-1.11-0.476-1.569-0.756  c-3.348-2.05-5.983-4.762-8.46-7.676c-5.592-6.576-9.709-14.927-10.645-26.22c-0.244-2.943-0.214-5.999,0.14-8.74  c0.35-2.714,0.946-5.269,1.653-7.564c2.885-9.357,8.178-16.323,14.987-21.906c4.974-4.078,11.115-7.341,18.769-8.88  c2.636-0.53,5.463-0.817,8.32-0.953c6.838-0.326,12.914,1.226,17.732,3.138c5.067,2.011,9.211,4.728,12.886,7.956  c3.666,3.22,6.906,7.051,9.468,11.401c0.643,1.091,1.221,2.188,1.737,3.474c0.269,0.67,0.476,1.323,0.308,2.129  c-0.283,1.359-1.322,2.228-1.373,3.838c-0.035,1.122,0.239,2.407,0.364,3.558c0.043,0.397,0.048,0.825,0.14,1.149  c0.201,0.703,0.909,0.976,1.345,1.26c0.101,0.066,0.202,0.209,0.308,0.224c0.214,0.031,0.358-0.121,0.504-0.14  c0.503-0.066,1.058,0.278,1.344,0.532c0.489,0.435,0.676,0.852,0.785,1.709c0.166,1.314,0.308,2.991,0.308,4.678  c0.001,6.564-1.351,12.118-3.165,16.78c-2.818,7.244-7.156,12.603-12.606,17.312c-3.078,2.66-6.655,4.954-10.701,6.751  c-0.544,0.241-1.339,0.647-1.821,0.672c-0.6,0.032-1.106-0.443-1.064-1.12c0.034-0.562,0.661-1.022,1.12-1.261  c0.565-0.293,1.127-0.52,1.597-0.756c2.228-1.12,4.025-2.077,5.995-3.474C74.758,84.585,75.264,84.248,75.719,83.895L75.719,83.895z   M70.291,14.907c0.025,0.377,0.569,0.863,0.84,1.177c1.244,1.435,2.56,2.867,4.174,3.894c0.875,0.556,1.528,1.044,2.521,1.513  c0.409,0.193,1.102,0.501,1.597,0.364c0.349-0.097,0.743-0.653,0.728-1.008c-0.015-0.37-0.519-0.845-0.812-1.149  c-1.713-1.778-3.389-3.056-5.379-4.426c-0.685-0.472-1.562-1.153-2.436-1.35c-0.198-0.045-0.402-0.061-0.558,0.002  C70.685,14.037,70.262,14.456,70.291,14.907L70.291,14.907z M38.304,11.745c-0.065-0.487-0.707-0.754-1.139-0.733  c-1.267,0.063-2.34,0.484-3.481,0.993c-1.071,0.477-2.107,1.021-3.141,1.571c-4.079,2.17-7.533,4.706-10.608,8.164  c-1.099,1.236-2.221,2.503-3.114,3.9c-0.211,0.33-0.506,0.853-0.439,1.26c0.069,0.419,0.814,0.95,1.195,1.074  c1.029,0.334,2.259-0.112,3.143-0.648c0.992-0.601,1.891-1.334,2.844-1.99c1.978-1.362,3.99-2.661,6.092-3.825  c0.525-0.291,1.07-0.544,1.592-0.838c1.463-0.823,2.654-1.806,3.572-3.226c0.649-1.003,1.19-2.07,1.856-3.065  c0.329-0.491,0.679-0.97,1.023-1.451C37.861,12.71,38.294,12.023,38.304,11.745L38.304,11.745z M48.753,11.319  c-1.061,0.076-2.216,0.145-3.25,0.398c-1.759,0.431-2.838,1.588-3.909,2.952c-0.551,0.702-1.085,1.418-1.598,2.149  c-0.482,0.687-1.04,1.433-1.373,2.204c-0.33,0.765-0.244,1.5,0.176,2.208c0.426,0.72,1.026,1.319,1.625,1.896  c1.306,1.258,2.641,2.483,3.872,3.817c1.039,1.126,2.361,2.717,3.862,3.185c0.503,0.157,1.157,0.133,1.797,0.089  c1.121-0.078,2.099-0.05,3.219-0.024c1.842,0.043,3.926,0.108,4.949,0.305c1.022,0.197,1.417,1.039,1.237,1.856  c-0.313,1.421-2.466,1.124-3.579,1.167c-1.206,0.046-6.267,0.759-7.125,1.487c-0.808,0.687-1.639,1.406-2.19,2.303  c-1.286,2.089-2.404,4.291-3.56,6.454c-0.866,1.619-1.815,3.231-2.445,4.961c-0.511,1.404-0.945,2.783-2.355,3.536  c-0.827,0.441-1.788,0.361-2.677,0.197c-1.467-0.27-2.986-0.345-4.47-0.495c-1.527-0.154-3.053-0.316-4.582-0.447  c-1.145-0.098-3.188-0.507-4.258-0.152c-0.893,0.296-1.668,1.275-2.105,2.072c-0.596,1.087-1.055,2.248-1.529,3.391  c-0.494,1.191-0.938,2.391-1.318,3.624c-0.384,1.246-0.637,2.618-0.347,3.911c0.264,1.176,0.892,2.236,1.46,3.285  c1.149,2.123,2.368,4.196,3.781,6.156c1.338,1.857,2.816,3.554,5.037,4.351c1.239,0.444,2.661,0.681,3.956,0.916  c1.442,0.262,2.892,0.473,4.352,0.606c1.075,0.098,2.904,0.288,3.867-0.279c1.89-1.113,2.853-3.718,3.791-5.615  c0.552-1.117,1.128-2.225,1.64-3.362c0.459-1.022,0.72-2.352,0.272-3.42c-0.449-1.068-0.853-2.065-1.421-3.222  c-1.358-2.765-2.252-3.829-3.73-6.535c-0.403-0.739-0.738-1.238-0.81-2.109c-0.107-1.301,0.981-1.585,1.951-0.733  c0.334,0.294,0.526,0.626,0.766,1.009c0.859,1.371,1.261,1.8,2.11,3.178c1.13,1.836,1.829,3.055,3.096,4.802  c0.707,0.974,2.12,1.651,3.303,2.037c1.345,0.44,3.652,0.302,5.08,0.24c1.824-0.08,3.652-0.107,5.474-0.224  c0.898-0.057,1.801-0.092,2.696-0.184c0.682-0.07,1.45-0.178,2.09-0.431c1.176-0.466,1.945-1.367,2.642-2.383  c0.765-1.116,1.416-2.313,2.053-3.506c0.662-1.241,1.283-2.505,1.888-3.775c0.61-1.282,1.243-2.544,1.735-3.879  c0.246-0.667,0.432-1.366,0.424-2.082c-0.007-0.708-0.155-1.422-0.416-2.079c-0.505-1.268-1.225-2.465-1.908-3.643  c-0.692-1.196-1.388-2.39-2.116-3.564c-0.698-1.125-1.404-2.302-2.237-3.332c-0.511-0.632-1.138-1.159-1.677-1.767  c-0.807-0.91-2.41-1.245-2.689-1.732c-0.303-0.529-0.351-1.08-0.133-1.632c0.223-0.566,1.953-1.074,2.73-1.999  c0.42-0.501,0.829-1.029,1.194-1.572c0.77-1.143,1.378-2.386,2.03-3.598c0.606-1.127,1.489-2.381,1.132-3.729  c-0.305-1.157-1.345-2.164-2.163-2.982c-1.877-1.877-3.874-3.635-6.184-4.964c-1.225-0.705-2.586-1.161-3.991-1.322  c-1.779-0.204-3.676-0.221-5.467-0.136C51.205,11.211,49.977,11.231,48.753,11.319L48.753,11.319z M72.429,24.798  c-0.97,1.525-1.77,3.163-2.67,4.73c-0.44,0.765-0.834,1.631-0.786,2.534c0.055,1.042,0.737,2.064,1.328,2.888  c2.082,2.901,3.861,5.977,5.573,9.107c0.258,0.471,0.502,0.979,0.828,1.407c0.561,0.736,1.276,1.592,2.242,1.753  c0.58,0.096,1.281-0.05,1.856-0.163c1.338-0.265,2.667-0.572,4.004-0.84c1.42-0.285,2.616-0.91,2.775-2.482  c0.133-1.312-0.063-2.723-0.196-4.032c-0.128-1.264-0.308-2.533-0.574-3.775c-0.405-1.891-1.025-4.626-2.261-6.109  c-1.943-2.331-4.612-4.212-7.151-5.855c-0.876-0.567-1.684-1.114-2.783-0.991c-0.203,0.023-0.433,0.082-0.604,0.198  C73.392,23.585,72.829,24.169,72.429,24.798L72.429,24.798z M13.946,31.916c-0.816,0.456-1.416,1.474-1.809,2.292  c-1.675,3.481-2.716,7.104-3.172,10.94c-0.352,2.958-0.359,5.984-0.055,8.947c0.122,1.189,0.279,2.623,0.771,3.72  c0.375,0.837,0.982,1.739,1.846,2.126c0.833,0.373,1.504-0.578,1.812-1.221c0.42-0.877,0.684-1.839,1.04-2.746  c0.723-1.841,1.548-3.637,2.478-5.382c0.438-0.822,0.857-1.587,0.941-2.536c0.095-1.079-0.176-2.213-0.331-3.278  c-0.35-2.405-0.424-4.856-0.54-7.281c-0.028-0.579-0.001-1.163,0.021-1.741c0.025-0.676,0.089-1.815-0.159-2.444  c-0.312-0.79-1.379-1.641-2.266-1.546C14.343,31.785,14.106,31.827,13.946,31.916L13.946,31.916z M11.089,64.874  c-0.038,0.237,0.156,0.782,0.239,1.006c0.149,0.404,0.314,0.794,0.486,1.187c2.006,4.597,4.815,8.527,8.196,12.205  c0.249,0.271,1.038,1.12,1.445,1.102c0.191-0.008,0.553-0.424,0.576-0.604c0.024-0.207-0.213-0.714-0.297-0.902  c-0.484-1.081-1.311-2.034-1.992-2.995c-1.464-2.066-2.826-4.223-4.055-6.437c-0.413-0.745-0.773-1.519-1.198-2.257  c-0.377-0.655-0.866-1.257-1.376-1.812c-0.222-0.242-1.045-1.122-1.422-1.056C11.51,64.344,11.12,64.68,11.089,64.874z"></path></svg>