<svg height='100px' width='100px'  fill="#fcfffe" xmlns="http://www.w3.org/2000/svg" xmlns:xlink="http://www.w3.org/1999/xlink" xml:space="preserve" version="1.1" style="shape-rendering:geometricPrecision;text-rendering:geometricPrecision;image-rendering:optimizeQuality;" viewBox="0 0 333 333" x="0px" y="0px" fill-rule="evenodd" clip-rule="evenodd"><defs><style type="text/css">
   
    .fil0 {fill:#fcfffe;fill-rule:nonzero}
   
  </style></defs><g><path class="fil0" d="M67 177c2,-4 4,-8 6,-11l-7 -7 7 -6 4 4c4,-6 8,-12 13,-18l-6 -6 7 -7 4 5c5,-5 10,-10 15,-16l-6 -6 7 -6 5 6c6,-5 11,-10 17,-14l-6 -6 7 -6 6 6c6,-4 12,-8 18,-12l-5 -5 7 -6 6 6c4,-1 7,-3 11,-5l3 9c-2,1 -5,2 -7,3l5 5 -7 7 -6 -7c-7,4 -13,8 -19,12l5 5 -6 7 -6 -7c-6,5 -11,10 -16,15l5 6 -7 6 -5 -6c-5,5 -10,11 -14,16l6 7 -7 6 -5 -5c-4,6 -9,12 -12,18l6 7 -6 7 -5 -5c-1,2 -2,5 -3,7l-9 -3zm209 -11l-108 -108c-47,20 -90,63 -110,110l108 108c47,-20 90,-63 110,-110zm-60 -120l71 72c1,-45 -27,-73 -71,-72zm-98 241l-72 -71c-1,44 27,72 72,71z"></path></g></svg>