<svg height='100px' width='100px'  fill="#fcfffe" xmlns="http://www.w3.org/2000/svg" xmlns:xlink="http://www.w3.org/1999/xlink" version="1.1" x="0px" y="0px" viewBox="0 0 32 32" style="enable-background:new 0 0 32 32;" xml:space="preserve"><g><path d="M29.3747482,2.6252594c-0.8336792-0.8336792-2.1853027-0.8336792-3.0189819,0l-5.8869629,5.8869629L16.040947,8.7135162   l7.2455444,7.2454834l0.2012939-4.4277954l5.8869629-5.8869629C30.2084274,4.8105621,30.2084274,3.4589386,29.3747482,2.6252594z"></path><circle cx="15.8745298" cy="23.6336651" r="4.4434686"></circle><path d="M10.4306564,23.6338043c0-3.0019531,2.4423828-5.4438477,5.4443359-5.4438477   c1.4341431,0,2.7364502,0.5614624,3.7096558,1.4708862l1.1357422-1.1357422l-7.2455444-7.2454834L2.5672531,22.187149   c-0.7563477,0.7564087-0.7563477,1.9827881,0,2.7391968l4.5063477,4.5063477c0.7564697,0.7564087,1.9827881,0.7564087,2.7392578,0   l2.0891724-2.0891724C10.992363,26.3702545,10.4306564,25.0678253,10.4306564,23.6338043z"></path></g></svg>